<svg width="30" height="30" viewBox="0 0 30 30" fill="none" xmlns="http://www.w3.org/2000/svg">
<path d="M1 5C1 3.89543 1.89543 3 3 3H11C12.1046 3 13 3.89543 13 5V13C13 14.1046 12.1046 15 11 15H3C1.89543 15 1 14.1046 1 13V5Z" fill="#07C8F9"/>
<path d="M1 19C1 17.8954 1.89543 17 3 17H11C12.1046 17 13 17.8954 13 19V27C13 28.1046 12.1046 29 11 29H3C1.89543 29 1 28.1046 1 27V19Z" fill="#09A6F3"/>
<path d="M15 19C15 17.8954 15.8954 17 17 17H25C26.1046 17 27 17.8954 27 19V27C27 28.1046 26.1046 29 25 29H17C15.8954 29 15 28.1046 15 27V19Z" fill="#0A85ED"/>
<path fill-rule="evenodd" clip-rule="evenodd" d="M14.5738 7.11476C13.8087 7.87981 13.8087 9.1202 14.5738 9.88524L20.1148 15.4262C20.8798 16.1913 22.1202 16.1913 22.8852 15.4262L28.4262 9.88524C29.1913 9.1202 29.1913 7.87981 28.4262 7.11476L22.8852 1.57379C22.1202 0.808738 20.8798 0.808738 20.1148 1.57379L14.5738 7.11476Z" fill="#0C63E7"/>
</svg>
