<svg id="folder" xmlns="http://www.w3.org/2000/svg" xmlns:xlink="http://www.w3.org/1999/xlink" width="1080" height="1080" viewBox="0 0 1080 1080">
  <defs>
    <linearGradient id="linear-gradient" x1="-0.118" y1="0.736" x2="0.786" y2="-0.309" gradientUnits="objectBoundingBox">
      <stop offset="0" stop-color="#e36013"/>
      <stop offset="1" stop-color="#ffc108"/>
    </linearGradient>
    <linearGradient id="linear-gradient-2" x1="0.5" y1="0.065" x2="0.5" y2="0.295" gradientUnits="objectBoundingBox">
      <stop offset="0" stop-color="#d4d4d4"/>
      <stop offset="1" stop-color="#696969"/>
    </linearGradient>
    <linearGradient id="linear-gradient-3" x1="0.52" y1="0.368" x2="0.522" y2="0.099" gradientUnits="objectBoundingBox">
      <stop offset="0" stop-color="#f3f2ef"/>
      <stop offset="1" stop-color="#fff"/>
    </linearGradient>
    <linearGradient id="linear-gradient-4" x1="0.369" y1="0.677" x2="0.751" y2="0.067" gradientUnits="objectBoundingBox">
      <stop offset="0" stop-color="#f5b906"/>
      <stop offset="1" stop-color="#ffd764"/>
    </linearGradient>
  </defs>
  <g id="Group_251" data-name="Group 251">
    <path id="Union_494" data-name="Union 494" d="M24849-7492a80,80,0,0,1-80-80v-840.578h996a80,80,0,0,1,80,80V-7572a80,80,0,0,1-80,80Zm-80-920.579V-8488a80,80,0,0,1,80-80h417.668c129.615,0,180.811,155.424,180.811,155.424Z" transform="translate(-24767 8570)" fill="url(#linear-gradient)"/>
    <path id="Union_651" data-name="Union 651" d="M-2586-3486.133V-3515h1076v28.865Z" transform="translate(2588 3858.133)" fill="rgba(0,0,0,0.15)"/>
    <path id="Union_397" data-name="Union 397" d="M14089-6929a50,50,0,0,1-50-50v-457a50,50,0,0,1,50-50h773a50,50,0,0,1,50,50v457a50,50,0,0,1-50,50Z" transform="translate(-13935.503 7683)" fill="url(#linear-gradient-2)"/>
    <path id="Union_395" data-name="Union 395" d="M14089-6962a50,50,0,0,1-50-50v-424a50,50,0,0,1,50-50h873a50,50,0,0,1,50,50v424a50,50,0,0,1-50,50Z" transform="translate(-13985.499 7745)" fill="url(#linear-gradient-3)"/>
    <path id="Union_492" data-name="Union 492" d="M-2586-3498v-17h973v17Z" transform="translate(2640 3870)" fill="rgba(0,0,0,0.15)"/>
    <path id="Union_495" data-name="Union 495" d="M24849-7862.006a80,80,0,0,1-80-80v-626h1076v626a80,80,0,0,1-80,80Z" transform="translate(-24767 8940.003)" fill="url(#linear-gradient-4)"/>
  </g>
  <rect id="Rectangle_1087" data-name="Rectangle 1087" width="1080" height="1080" fill="none"/>
</svg>
