<svg width="30" height="30" viewBox="0 0 30 30" fill="none" xmlns="http://www.w3.org/2000/svg">
<path d="M1 5C1 2.79086 2.79086 1 5 1H9V29H5C2.79086 29 1 27.2091 1 25V5Z" fill="url(#paint0_linear_846_107)"/>
<path d="M9 1H25C27.2091 1 29 2.79086 29 5V25C29 27.2091 27.2091 29 25 29H9V1Z" fill="url(#paint1_linear_846_107)"/>
<path d="M12 8C12 6.89543 12.8954 6 14 6H24C25.1046 6 26 6.89543 26 8V8C26 9.10457 25.1046 10 24 10H14C12.8954 10 12 9.10457 12 8V8Z" fill="white"/>
<path d="M12 15C12 13.8954 12.8954 13 14 13H24C25.1046 13 26 13.8954 26 15V15C26 16.1046 25.1046 17 24 17H14C12.8954 17 12 16.1046 12 15V15Z" fill="white"/>
<path d="M18 22C18 20.8954 18.8954 20 20 20H24C25.1046 20 26 20.8954 26 22V22C26 23.1046 25.1046 24 24 24H20C18.8954 24 18 23.1046 18 22V22Z" fill="#0C63E7"/>
<defs>
<linearGradient id="paint0_linear_846_107" x1="5" y1="1" x2="5" y2="29" gradientUnits="userSpaceOnUse">
<stop stop-color="#0A85ED"/>
<stop offset="1" stop-color="#0C63E7"/>
</linearGradient>
<linearGradient id="paint1_linear_846_107" x1="19" y1="1" x2="19" y2="29" gradientUnits="userSpaceOnUse">
<stop stop-color="#07C8F9"/>
<stop offset="1" stop-color="#09A6F3"/>
</linearGradient>
</defs>
</svg>
