<svg width="30" height="30" viewBox="0 0 30 30" fill="none" xmlns="http://www.w3.org/2000/svg">
<path d="M28 14C28 21.1797 22.1797 27 15 27C7.8203 27 2 21.1797 2 14C2 6.8203 7.8203 1 15 1C22.1797 1 28 6.8203 28 14Z" fill="url(#paint0_linear_261_124)"/>
<path fill-rule="evenodd" clip-rule="evenodd" d="M11.1971 11.4283L12.8397 14.2557H14.5675L12.7863 11.3139C13.3481 11.1684 13.7711 10.9051 14.0556 10.5239C14.34 10.1358 14.4822 9.7027 14.4822 9.22453C14.4822 8.80873 14.3791 8.43451 14.1729 8.10187C13.9738 7.7623 13.6716 7.4955 13.2663 7.30146C12.861 7.10049 12.3704 7 11.7944 7H9V14.2557H10.4932V11.4283H11.1971ZM11.7411 10.3368H10.4932V8.20582H11.7411C12.1464 8.20582 12.4486 8.29938 12.6477 8.48649C12.8468 8.66667 12.9463 8.92308 12.9463 9.25572C12.9463 9.59529 12.8468 9.86209 12.6477 10.0561C12.4486 10.2432 12.1464 10.3368 11.7411 10.3368ZM18.139 8.6736C17.8048 8.84685 17.5417 9.06514 17.3497 9.32848V8.49688H15.8565V17H17.3497V13.4345C17.5559 13.6979 17.8226 13.9161 18.1497 14.0894C18.4839 14.2626 18.8678 14.3493 19.3016 14.3493C19.8064 14.3493 20.2615 14.2245 20.6668 13.9751C21.0792 13.7256 21.4027 13.3756 21.6374 12.9252C21.8791 12.4678 22 11.9446 22 11.3555C22 10.7665 21.8791 10.2502 21.6374 9.80665C21.4027 9.3562 21.0792 9.0097 20.6668 8.76715C20.2615 8.5246 19.8064 8.40333 19.3016 8.40333C18.8678 8.40333 18.4803 8.49342 18.139 8.6736ZM20.2508 10.4615C20.4001 10.711 20.4748 11.009 20.4748 11.3555C20.4748 11.7089 20.4001 12.0139 20.2508 12.2703C20.1086 12.5267 19.9166 12.7242 19.6749 12.8628C19.4402 13.0014 19.1842 13.0707 18.9069 13.0707C18.6367 13.0707 18.3808 13.0049 18.139 12.8732C17.9044 12.7346 17.7124 12.5371 17.5631 12.2807C17.4208 12.0243 17.3497 11.7228 17.3497 11.3763C17.3497 11.0298 17.4208 10.7283 17.5631 10.4719C17.7124 10.2155 17.9044 10.0215 18.139 9.88981C18.3808 9.75121 18.6367 9.68191 18.9069 9.68191C19.1842 9.68191 19.4402 9.74775 19.6749 9.87942C19.9166 10.0111 20.1086 10.2051 20.2508 10.4615Z" fill="white"/>
<path fill-rule="evenodd" clip-rule="evenodd" d="M5 17C5 17 8.37438 16.9907 10.1333 17.2667C12.9377 17.7068 16.243 18.2083 17.9146 18.4607C18.5394 18.5551 19 19.0916 19 19.7235C19 20.4285 18.4285 21 17.7235 21H11.5C11.2239 21 11 21.2239 11 21.5C11 21.7761 11.2239 22 11.5 22H27.0699C28.6043 22.7428 28.9057 23.0721 29 24.3477C29 24.3477 16.0769 28.6897 13.4895 28.9725C10.9162 29.2538 5.06428 27.0245 5.00052 27.0002L5 27L4.12361 26.6444C2.23532 25.8782 1 24.0437 1 22.0059V21C1 18.7909 2.79086 17 5 17Z" fill="url(#paint1_linear_261_124)"/>
<defs>
<linearGradient id="paint0_linear_261_124" x1="15" y1="1" x2="15" y2="27" gradientUnits="userSpaceOnUse">
<stop stop-color="#FF9E00"/>
<stop offset="1" stop-color="#FF8500"/>
</linearGradient>
<linearGradient id="paint1_linear_261_124" x1="15" y1="17" x2="15" y2="28.9971" gradientUnits="userSpaceOnUse">
<stop stop-color="#FECF3E"/>
<stop offset="1" stop-color="#FFB600"/>
</linearGradient>
</defs>
</svg>
