<svg width="30" height="30" viewBox="0 0 30 30" fill="none" xmlns="http://www.w3.org/2000/svg">
<circle cx="15" cy="15" r="14" fill="url(#paint0_linear_806_211)"/>
<path fill-rule="evenodd" clip-rule="evenodd" d="M18.6157 6.67401C17.443 6.88814 16.2346 7 15 7C13.7654 7 12.557 6.88814 11.3843 6.67401C12.2054 4.58918 13.3666 2.67553 14.7996 1.0014C13.8475 1.01476 12.9184 1.12317 12.0213 1.31756C10.9591 2.82048 10.0807 4.46247 9.41868 6.21084C8.07443 5.82097 6.78855 5.29384 5.57719 4.64561C5.0673 5.1099 4.59183 5.61134 4.15507 6.14565C5.60722 6.96999 7.16238 7.63388 8.79644 8.11322C8.27737 9.98692 8 11.9611 8 14H1.03516C1.01185 14.3303 1 14.6638 1 15C1 15.3362 1.01185 15.6697 1.03516 16H8.08969C8.26954 17.9958 8.71592 19.9147 9.39297 21.7209C7.5402 22.2078 5.78292 22.9303 4.15507 23.8543C4.59183 24.3887 5.0673 24.8901 5.57719 25.3544C7.0186 24.583 8.56554 23.9832 10.1907 23.582C11.0894 25.4363 12.2407 27.1454 13.5999 28.6644C13.5136 28.7445 13.4265 28.8239 13.3388 28.9025C13.8836 28.9669 14.4379 29 15 29C15.5621 29 16.1164 28.9669 16.6612 28.9025C16.5735 28.8239 16.4864 28.7445 16.4001 28.6644C17.7593 27.1454 18.9107 25.4363 19.8093 23.582C21.4345 23.9832 22.9814 24.583 24.4228 25.3544C24.9327 24.8901 25.4082 24.3887 25.8449 23.8543C24.2171 22.9303 22.4598 22.2078 20.607 21.7209C21.2841 19.9147 21.7305 17.9958 21.9103 16H28.9648C28.9881 15.6697 29 15.3362 29 15C29 14.6638 28.9881 14.3303 28.9648 14H22C22 11.9611 21.7226 9.98692 21.2036 8.11322C22.8376 7.63388 24.3928 6.96999 25.8449 6.14565C25.4082 5.61134 24.9327 5.1099 24.4228 4.64562C23.2115 5.29384 21.9256 5.82097 20.5813 6.21084C19.9193 4.46247 19.0409 2.82048 17.9787 1.31756C17.0816 1.12317 16.1525 1.01476 15.2004 1.0014C16.6334 2.67553 17.7946 4.58918 18.6157 6.67401ZM19.2591 8.58803C17.8812 8.85833 16.4571 9 15 9C13.5429 9 12.1188 8.85833 10.7409 8.58803C10.2582 10.3093 10 12.1245 10 14H20C20 12.1245 19.7418 10.3093 19.2591 8.58803ZM18.6269 21.2975C19.281 19.6293 19.7174 17.8518 19.9012 16H10.0988C10.2826 17.8518 10.719 19.6293 11.3731 21.2975C12.553 21.1018 13.7646 21 15 21C16.2354 21 17.447 21.1018 18.6269 21.2975ZM17.7682 23.19C16.8634 23.0647 15.9393 23 15 23C14.0607 23 13.1366 23.0647 12.2318 23.19C12.9889 24.6509 13.9209 26.0065 15 27.2291C16.0791 26.0065 17.0111 24.6509 17.7682 23.19Z" fill="url(#paint1_linear_806_211)"/>
<defs>
<linearGradient id="paint0_linear_806_211" x1="15" y1="1" x2="15" y2="29" gradientUnits="userSpaceOnUse">
<stop stop-color="#FECF3E"/>
<stop offset="1" stop-color="#FFB600"/>
</linearGradient>
<linearGradient id="paint1_linear_806_211" x1="15" y1="1.0014" x2="15" y2="29" gradientUnits="userSpaceOnUse">
<stop stop-color="#FF8500"/>
<stop offset="1" stop-color="#FF6D00"/>
</linearGradient>
</defs>
</svg>
