<svg width="30" height="30" viewBox="0 0 30 30" fill="none" xmlns="http://www.w3.org/2000/svg">
<path d="M1 7C1 3.68629 3.68629 1 7 1H23C26.3137 1 29 3.68629 29 7V23C29 26.3137 26.3137 29 23 29H7C3.68629 29 1 26.3137 1 23V7Z" fill="url(#paint0_linear_32_99)"/>
<path d="M6 8C6 6.89543 6.89543 6 8 6C9.10457 6 10 6.89543 10 8C10 9.10457 9.10457 10 8 10C6.89543 10 6 9.10457 6 8Z" fill="white"/>
<path d="M6 15C6 13.8954 6.89543 13 8 13C9.10457 13 10 13.8954 10 15C10 16.1046 9.10457 17 8 17C6.89543 17 6 16.1046 6 15Z" fill="white"/>
<path d="M12 22C12 20.8954 12.8954 20 14 20H22C23.1046 20 24 20.8954 24 22C24 23.1046 23.1046 24 22 24H14C12.8954 24 12 23.1046 12 22Z" fill="white"/>
<path d="M12 15C12 13.8954 12.8954 13 14 13H22C23.1046 13 24 13.8954 24 15C24 16.1046 23.1046 17 22 17H14C12.8954 17 12 16.1046 12 15Z" fill="white"/>
<path d="M12 8C12 6.89543 12.8954 6 14 6H22C23.1046 6 24 6.89543 24 8C24 9.10457 23.1046 10 22 10H14C12.8954 10 12 9.10457 12 8Z" fill="white"/>
<path d="M6 22C6 20.8954 6.89543 20 8 20C9.10457 20 10 20.8954 10 22C10 23.1046 9.10457 24 8 24C6.89543 24 6 23.1046 6 22Z" fill="white"/>
<defs>
<linearGradient id="paint0_linear_32_99" x1="15" y1="1" x2="15" y2="29" gradientUnits="userSpaceOnUse">
<stop stop-color="#FECF3E"/>
<stop offset="1" stop-color="#FFB600"/>
</linearGradient>
</defs>
</svg>
