<svg width="110" height="110" viewBox="0 0 110 110" fill="none" xmlns="http://www.w3.org/2000/svg">
<path d="M18.6 42.6C18.6 38.2922 22.0922 34.8 26.4 34.8H83.6C87.9078 34.8 91.4 38.2922 91.4 42.6V81.6C91.4 85.9078 87.9078 89.4 83.6 89.4H26.4C22.0922 89.4 18.6 85.9078 18.6 81.6V42.6Z" fill="url(#paint0_linear_1924_95)"/>
<path fill-rule="evenodd" clip-rule="evenodd" d="M55 16.6C50.6921 16.6 47.2 20.0922 47.2 24.4H42C37.6921 24.4 34.2 27.8922 34.2 32.2V34.8H75.7999V32.2C75.7999 27.8922 72.3078 24.4 67.9999 24.4H62.8C62.8 20.0922 59.3078 16.6 55 16.6Z" fill="url(#paint1_linear_1924_95)"/>
<path d="M49.8 51.7C49.8 55.2899 46.8898 58.2 43.3 58.2C39.7101 58.2 36.8 55.2899 36.8 51.7C36.8 48.1102 39.7101 45.2 43.3 45.2C46.8898 45.2 49.8 48.1102 49.8 51.7Z" fill="white"/>
<path d="M31.6 72.5C31.6 66.0383 36.8382 60.8 43.3 60.8V60.8C49.7617 60.8 55 66.0383 55 72.5V76.4C55 77.8359 53.8359 79 52.4 79H34.2C32.764 79 31.6 77.8359 31.6 76.4V72.5Z" fill="white"/>
<path d="M60.2 49.1C60.2 46.9461 61.946 45.2 64.1 45.2H74.5C76.6539 45.2 78.4 46.9461 78.4 49.1V49.1C78.4 51.2539 76.6539 53 74.5 53H64.1C61.946 53 60.2 51.2539 60.2 49.1V49.1Z" fill="white"/>
<path d="M60.2 62.1C60.2 59.9461 61.946 58.2 64.1 58.2H74.5C76.6539 58.2 78.4 59.9461 78.4 62.1V62.1C78.4 64.2539 76.6539 66 74.5 66H64.1C61.946 66 60.2 64.2539 60.2 62.1V62.1Z" fill="white"/>
<path d="M60.2 75.1C60.2 72.9461 61.946 71.2 64.1 71.2H74.5C76.6539 71.2 78.4 72.9461 78.4 75.1V75.1C78.4 77.2539 76.6539 79 74.5 79H64.1C61.946 79 60.2 77.2539 60.2 75.1V75.1Z" fill="white"/>
<defs>
<linearGradient id="paint0_linear_1924_95" x1="55" y1="34.8" x2="55" y2="89.4" gradientUnits="userSpaceOnUse">
<stop stop-color="#FFCF3C"/>
<stop offset="1" stop-color="#FFB804"/>
</linearGradient>
<linearGradient id="paint1_linear_1924_95" x1="55" y1="16.6" x2="55" y2="34.8" gradientUnits="userSpaceOnUse">
<stop stop-color="#FF9E01"/>
<stop offset="1" stop-color="#FF8701"/>
</linearGradient>
</defs>
</svg>
