<svg width="30" height="30" viewBox="0 0 30 30" fill="none" xmlns="http://www.w3.org/2000/svg">
<path d="M1 3C1 1.89543 1.89543 1 3 1H27C28.1046 1 29 1.89543 29 3V17C29 18.1046 28.1046 19 27 19H3C1.89543 19 1 18.1046 1 17V3Z" fill="#06DB00"/>
<path d="M14.2132 5.49439C14.547 4.8352 15.453 4.83521 15.7868 5.49439L16.6993 7.29629C16.828 7.55049 17.0626 7.7281 17.3344 7.7771L19.2612 8.12445C19.966 8.25151 20.246 9.14937 19.7475 9.68383L18.3847 11.1448C18.1924 11.3509 18.1028 11.6383 18.142 11.9228L18.4204 13.9394C18.5222 14.6771 17.7892 15.232 17.1473 14.9031L15.3925 14.0041C15.145 13.8773 14.855 13.8773 14.6074 14.0041L12.8527 14.9031C12.2108 15.232 11.4778 14.6771 11.5796 13.9394L11.858 11.9228C11.8972 11.6383 11.8076 11.3509 11.6153 11.1448L10.2525 9.68383C9.75399 9.14937 10.034 8.25151 10.7388 8.12445L12.6656 7.7771C12.9374 7.7281 13.172 7.55049 13.3007 7.29629L14.2132 5.49439Z" fill="white"/>
<path d="M23 1H27C28.1046 1 29 1.89543 29 3V7H28C25.2386 7 23 4.76142 23 2V1Z" fill="#05C300"/>
<path d="M23 19H27C28.1046 19 29 18.1046 29 17V13H28C25.2386 13 23 15.2386 23 18V19Z" fill="#05C300"/>
<path d="M7 1H3C1.89543 1 1 1.89543 1 3V7H2C4.76142 7 7 4.76142 7 2V1Z" fill="#05C300"/>
<path d="M7 19H3C1.89543 19 1 18.1046 1 17V13H2C4.76142 13 7 15.2386 7 18V19Z" fill="#05C300"/>
<path d="M4 20H26V22C26 23.1046 25.1046 24 24 24H6C4.89543 24 4 23.1046 4 22V20Z" fill="#05C300"/>
<path d="M7 25H23V27C23 28.1046 22.1046 29 21 29H9C7.89543 29 7 28.1046 7 27V25Z" fill="#05AB01"/>
</svg>
