<svg width="30" height="30" viewBox="0 0 30 30" fill="none" xmlns="http://www.w3.org/2000/svg">
<path d="M29 15C29 22.732 22.732 29 15 29C7.26801 29 1 22.732 1 15C1 7.26801 7.26801 1 15 1C22.732 1 29 7.26801 29 15Z" fill="url(#paint0_linear_260_68)"/>
<path d="M13 10.818C13 12.1987 11.8807 13.318 10.5 13.318C9.11929 13.318 8 12.1987 8 10.818C8 9.43731 9.11929 8.31802 10.5 8.31802C11.8807 8.31802 13 9.43731 13 10.818Z" fill="white"/>
<path d="M22 19.818C22 21.1987 20.8807 22.318 19.5 22.318C18.1193 22.318 17 21.1987 17 19.818C17 18.4373 18.1193 17.318 19.5 17.318C20.8807 17.318 22 18.4373 22 19.818Z" fill="white"/>
<path d="M9.15901 20.841C8.51891 20.2009 8.55755 19.1244 9.24532 18.4367L18.4367 9.24532C19.1244 8.55755 20.2009 8.51891 20.841 9.15901V9.15901C21.4811 9.79911 21.4425 10.8756 20.7547 11.5633L11.5633 20.7547C10.8756 21.4425 9.79911 21.4811 9.15901 20.841V20.841Z" fill="white"/>
<defs>
<linearGradient id="paint0_linear_260_68" x1="15" y1="1" x2="15" y2="29" gradientUnits="userSpaceOnUse">
<stop stop-color="#FECF3E"/>
<stop offset="1" stop-color="#FFB600"/>
</linearGradient>
</defs>
</svg>
