<svg width="110" height="110" viewBox="0 0 110 110" fill="none" xmlns="http://www.w3.org/2000/svg">
<path d="M29.4 29.6C29.4 25.6235 32.6236 22.4 36.6 22.4H48.6V89.6H36.6C32.6236 89.6 29.4 86.3764 29.4 82.4V29.6Z" fill="url(#paint0_linear_1924_95)"/>
<path d="M48.6 22.4H77.4C81.3765 22.4 84.6 25.6235 84.6 29.6V82.4C84.6 86.3764 81.3765 89.6 77.4 89.6H48.6V22.4Z" fill="url(#paint1_linear_1924_95)"/>
<path d="M55.8 65.6C55.8 64.2745 56.8746 63.2 58.2 63.2H75.0001C76.3255 63.2 77.4001 64.2745 77.4001 65.6C77.4001 66.9255 76.3255 68 75.0001 68H58.2C56.8746 68 55.8 66.9255 55.8 65.6Z" fill="white"/>
<path d="M55.8 75.2C55.8 73.8745 56.8746 72.8 58.2 72.8H75.0001C76.3255 72.8 77.4001 73.8745 77.4001 75.2C77.4001 76.5255 76.3255 77.6 75.0001 77.6H58.2C56.8746 77.6 55.8 76.5255 55.8 75.2Z" fill="white"/>
<path fill-rule="evenodd" clip-rule="evenodd" d="M24.6 44C24.6 38.6981 28.8981 34.4 34.2 34.4C39.502 34.4 43.8 38.6981 43.8 44V64.4C43.8 71.6901 37.8902 77.6 30.6 77.6C23.3099 77.6 17.4 71.6902 17.4 64.4V39.5429C17.4 38.2174 18.4745 37.1429 19.8 37.1429C21.1255 37.1429 22.2 38.2174 22.2 39.5429V64.4C22.2 69.0392 25.9608 72.8 30.6 72.8C35.2392 72.8 39 69.0392 39 64.4V44C39 41.349 36.851 39.2 34.2 39.2C31.5491 39.2 29.4 41.349 29.4 44V64.4C29.4 65.0627 29.9373 65.6 30.6 65.6C31.2628 65.6 31.8 65.0627 31.8 64.4V45.0286C31.8 43.7031 32.8745 42.6286 34.2 42.6286C35.5255 42.6286 36.6 43.7031 36.6 45.0286V64.4C36.6 67.7137 33.9137 70.4 30.6 70.4C27.2863 70.4 24.6 67.7137 24.6 64.4L24.6 44Z" fill="url(#paint2_linear_1924_95)"/>
<path d="M77.4001 45.2C77.4001 47.336 76.7666 49.4241 75.5799 51.2002C74.3932 52.9762 72.7065 54.3605 70.733 55.1779C68.7596 55.9953 66.5881 56.2092 64.4931 55.7925C62.3981 55.3758 60.4737 54.3472 58.9633 52.8367C57.4529 51.3263 56.4243 49.402 56.0076 47.307C55.5909 45.212 55.8047 43.0405 56.6222 41.067C57.4396 39.0936 58.8238 37.4068 60.5999 36.2201C62.3759 35.0334 64.464 34.4 66.6001 34.4V45.2H77.4001Z" fill="white"/>
<defs>
<linearGradient id="paint0_linear_1924_95" x1="39" y1="22.4" x2="39" y2="89.6" gradientUnits="userSpaceOnUse">
<stop stop-color="#0A85ED"/>
<stop offset="1" stop-color="#0C63E7"/>
</linearGradient>
<linearGradient id="paint1_linear_1924_95" x1="66.6" y1="22.4" x2="66.6" y2="89.6" gradientUnits="userSpaceOnUse">
<stop stop-color="#09A6F3"/>
<stop offset="1" stop-color="#0A85ED"/>
</linearGradient>
<linearGradient id="paint2_linear_1924_95" x1="30.6" y1="36.8" x2="30.6" y2="75.2" gradientUnits="userSpaceOnUse">
<stop stop-color="#07C8F9"/>
<stop offset="1" stop-color="#09A6F3"/>
</linearGradient>
</defs>
</svg>
