<svg width="30" height="30" viewBox="0 0 30 30" fill="none" xmlns="http://www.w3.org/2000/svg">
<path d="M1 4C1 2.34315 2.34315 1 4 1H7V17H5C2.79086 17 1 15.2091 1 13V4Z" fill="url(#paint0_linear_576_68)"/>
<path fill-rule="evenodd" clip-rule="evenodd" d="M4 1H7H25C27.2091 1 29 2.79086 29 5V25C29 27.2091 27.2091 29 25 29H11C8.79086 29 7 27.2091 7 25V4C7 2.34315 5.65686 1 4 1Z" fill="url(#paint1_linear_576_68)"/>
<path d="M12 8C12 6.89543 12.8954 6 14 6H22C23.1046 6 24 6.89543 24 8C24 9.10457 23.1046 10 22 10H14C12.8954 10 12 9.10457 12 8Z" fill="white"/>
<path d="M12 15C12 13.8954 12.8954 13 14 13H22C23.1046 13 24 13.8954 24 15C24 16.1046 23.1046 17 22 17H14C12.8954 17 12 16.1046 12 15Z" fill="white"/>
<path d="M12 22C12 20.8954 12.8954 20 14 20H18C19.1046 20 20 20.8954 20 22C20 23.1046 19.1046 24 18 24H14C12.8954 24 12 23.1046 12 22Z" fill="white"/>
<defs>
<linearGradient id="paint0_linear_576_68" x1="4" y1="1" x2="4" y2="17" gradientUnits="userSpaceOnUse">
<stop stop-color="#0C63E7"/>
<stop offset="1" stop-color="#0A85ED"/>
</linearGradient>
<linearGradient id="paint1_linear_576_68" x1="5.5" y1="1" x2="5.5" y2="29" gradientUnits="userSpaceOnUse">
<stop stop-color="#07C8F9"/>
<stop offset="1" stop-color="#09A6F3"/>
</linearGradient>
</defs>
</svg>
