<svg width="30" height="30" viewBox="0 0 30 30" fill="none" xmlns="http://www.w3.org/2000/svg">
<path fill-rule="evenodd" clip-rule="evenodd" d="M17.2192 1C17.6781 1 18.0781 1.3123 18.1894 1.75746L18.8578 4.43108C18.9035 4.61411 19.0365 4.76245 19.2107 4.83471C19.3851 4.90704 19.5836 4.89593 19.7455 4.79879L22.1087 3.38087C22.5021 3.14478 23.0058 3.20679 23.3303 3.53125L26.4687 6.66971C26.7932 6.99418 26.8552 7.49784 26.6191 7.89131L25.2012 10.2545C25.1041 10.4164 25.0929 10.6148 25.1653 10.7893C25.2376 10.9635 25.3859 11.0965 25.5689 11.1422L28.2425 11.8106C28.6877 11.9219 29 12.3219 29 12.7808V17.2192C29 17.6781 28.6877 18.0781 28.2425 18.1894L25.5689 18.8578C25.3859 18.9035 25.2376 19.0365 25.1653 19.2107C25.093 19.3852 25.1041 19.5836 25.2012 19.7455L26.6191 22.1087C26.8552 22.5021 26.7932 23.0058 26.4687 23.3303L23.3303 26.4687C23.0058 26.7932 22.5021 26.8552 22.1087 26.6191L19.7455 25.2012C19.5836 25.1041 19.3852 25.0929 19.2108 25.1653C19.0365 25.2376 18.9035 25.3859 18.8578 25.5689L18.1894 28.2425C18.0781 28.6877 17.6781 29 17.2192 29H12.7808C12.3219 29 11.9219 28.6877 11.8106 28.2425L11.1422 25.5689C11.0965 25.3859 10.9635 25.2376 10.7892 25.1653C10.6148 25.0929 10.4164 25.1041 10.2545 25.2012L7.89134 26.6191C7.49786 26.8552 6.9942 26.7932 6.66973 26.4687L3.53128 23.3302C3.20681 23.0058 3.14481 22.5021 3.38089 22.1086L4.79879 19.7455C4.89593 19.5836 4.90704 19.3852 4.83471 19.2107C4.76245 19.0365 4.6141 18.9035 4.43107 18.8578L1.75746 18.1894C1.3123 18.0781 1 17.6781 1 17.2192V12.7808C1 12.3219 1.3123 11.9219 1.75747 11.8106L4.43106 11.1422C4.6141 11.0965 4.76245 10.9635 4.83472 10.7893C4.90705 10.6148 4.89594 10.4164 4.79879 10.2545L3.38089 7.89133C3.14481 7.49785 3.20681 6.99419 3.53128 6.66973L6.66973 3.53127C6.9942 3.2068 7.49786 3.1448 7.89134 3.38088L10.2545 4.79879C10.4164 4.89593 10.6148 4.90705 10.7893 4.83472C10.9635 4.76245 11.0965 4.6141 11.1422 4.43107L11.8106 1.75747C11.9219 1.3123 12.3219 1 12.7808 1H17.2192ZM15 23C19.4183 23 23 19.4183 23 15C23 10.5817 19.4183 7 15 7C10.5817 7 7 10.5817 7 15C7 19.4183 10.5817 23 15 23Z" fill="url(#paint0_linear_203_245)"/>
<path d="M21 15C21 18.3137 18.3137 21 15 21C11.6863 21 9 18.3137 9 15C9 11.6863 11.6863 9 15 9C18.3137 9 21 11.6863 21 15Z" fill="url(#paint1_linear_203_245)"/>
<defs>
<linearGradient id="paint0_linear_203_245" x1="15" y1="1" x2="15" y2="29" gradientUnits="userSpaceOnUse">
<stop stop-color="#CECECE"/>
<stop offset="1" stop-color="#969696"/>
</linearGradient>
<linearGradient id="paint1_linear_203_245" x1="15" y1="9" x2="15" y2="21" gradientUnits="userSpaceOnUse">
<stop stop-color="#969696"/>
<stop offset="1" stop-color="#757575"/>
</linearGradient>
</defs>
</svg>
