<svg width="110" height="110" viewBox="0 0 110 110" fill="none" xmlns="http://www.w3.org/2000/svg">
<path d="M89.6 55C89.6 73.5568 74.5568 88.6 56 88.6C37.4433 88.6 22.4 73.5568 22.4 55C22.4 36.4432 37.4433 21.4 56 21.4C74.5568 21.4 89.6 36.4432 89.6 55Z" fill="url(#paint0_linear_1924_95)"/>
<path d="M51.2 44.9633C51.2 48.277 48.5137 50.9633 45.2 50.9633C41.8863 50.9633 39.2 48.277 39.2 44.9633C39.2 41.6495 41.8863 38.9633 45.2 38.9633C48.5137 38.9633 51.2 41.6495 51.2 44.9633Z" fill="white"/>
<path d="M72.8 66.5632C72.8 69.877 70.1138 72.5632 66.8 72.5632C63.4863 72.5632 60.8 69.877 60.8 66.5632C60.8 63.2495 63.4863 60.5632 66.8 60.5632C70.1138 60.5632 72.8 63.2495 72.8 66.5632Z" fill="white"/>
<path d="M41.9816 69.0184C40.4454 67.4821 40.5381 64.8986 42.1888 63.248L64.248 41.1888C65.8986 39.5381 68.4821 39.4454 70.0184 40.9816V40.9816C71.5546 42.5179 71.4619 45.1014 69.8112 46.752L47.752 68.8112C46.1014 70.4619 43.5179 70.5546 41.9816 69.0184V69.0184Z" fill="white"/>
<defs>
<linearGradient id="paint0_linear_1924_95" x1="56" y1="21.4" x2="56" y2="88.6" gradientUnits="userSpaceOnUse">
<stop stop-color="#09A6F3"/>
<stop offset="1" stop-color="#0A85ED"/>
</linearGradient>
</defs>
</svg>
