<svg width="110" height="110" viewBox="0 0 110 110" fill="none" xmlns="http://www.w3.org/2000/svg">
<path d="M89.3572 52.3571C89.3572 71.3321 73.975 86.7143 55 86.7143C36.0251 86.7143 20.6429 71.3321 20.6429 52.3571C20.6429 33.3822 36.0251 18 55 18C73.975 18 89.3572 33.3822 89.3572 52.3571Z" fill="url(#paint0_linear_1924_95)"/>
<path fill-rule="evenodd" clip-rule="evenodd" d="M44.9496 45.5604L49.2906 53.033H53.857L49.1496 45.2582C50.6342 44.8736 51.7523 44.1777 52.504 43.1703C53.2557 42.1447 53.6315 41 53.6315 39.7363C53.6315 38.6374 53.359 37.6484 52.8141 36.7692C52.2879 35.8718 51.4892 35.1667 50.4181 34.6539C49.3469 34.1227 48.0503 33.8571 46.5281 33.8571H39.1429V53.033H43.0892V45.5604H44.9496ZM46.3872 42.6758H43.0892V37.044H46.3872C47.4583 37.044 48.257 37.2912 48.7832 37.7857C49.3094 38.2619 49.5724 38.9396 49.5724 39.8187C49.5724 40.7161 49.3094 41.4212 48.7832 41.9341C48.257 42.4286 47.4583 42.6758 46.3872 42.6758ZM63.296 38.2802C62.4127 38.7381 61.7174 39.315 61.2101 40.011V37.8132H57.2637V60.2857H61.2101V50.8626C61.755 51.5586 62.4597 52.1355 63.3242 52.5934C64.2074 53.0513 65.2222 53.2802 66.3685 53.2802C67.7027 53.2802 68.9054 52.9506 69.9765 52.2912C71.0665 51.6319 71.9215 50.707 72.5416 49.5165C73.1806 48.3077 73.5 46.9249 73.5 45.3681C73.5 43.8114 73.1806 42.4469 72.5416 41.2747C71.9215 40.0843 71.0665 39.1685 69.9765 38.5275C68.9054 37.8865 67.7027 37.5659 66.3685 37.5659C65.2222 37.5659 64.198 37.804 63.296 38.2802ZM68.8772 43.0055C69.2718 43.6648 69.4691 44.4524 69.4691 45.3681C69.4691 46.3022 69.2718 47.1081 68.8772 47.7857C68.5014 48.4634 67.994 48.9854 67.355 49.3517C66.7349 49.718 66.0584 49.9011 65.3255 49.9011C64.6114 49.9011 63.9349 49.7271 63.296 49.3791C62.6758 49.0128 62.1685 48.4908 61.7738 47.8132C61.398 47.1355 61.2101 46.3388 61.2101 45.4231C61.2101 44.5073 61.398 43.7106 61.7738 43.033C62.1685 42.3553 62.6758 41.8425 63.296 41.4945C63.9349 41.1282 64.6114 40.9451 65.3255 40.9451C66.0584 40.9451 66.7349 41.1191 67.355 41.467C67.994 41.815 68.5014 42.3278 68.8772 43.0055Z" fill="white"/>
<path fill-rule="evenodd" clip-rule="evenodd" d="M28.5714 60.2858C28.5714 60.2858 37.4894 60.2611 42.1381 60.9906C49.5497 62.1536 58.285 63.479 62.7029 64.1462C64.354 64.3955 65.5714 65.8136 65.5714 67.4835C65.5714 69.3467 64.061 70.8571 62.1978 70.8571H45.75C45.0202 70.8571 44.4286 71.4488 44.4286 72.1786C44.4286 72.9084 45.0202 73.5 45.75 73.5H86.8991C90.9543 75.4631 91.7508 76.3335 92 79.7048C92 79.7048 57.8462 91.1798 51.008 91.9274C44.2071 92.6709 28.7413 86.7791 28.5728 86.7149L28.5714 86.7144L26.2553 85.7745C21.2648 83.7494 18 78.9013 18 73.5156V70.8572C18 65.0188 22.733 60.2858 28.5714 60.2858Z" fill="url(#paint1_linear_1924_95)"/>
<defs>
<linearGradient id="paint0_linear_1924_95" x1="55" y1="18" x2="55" y2="86.7143" gradientUnits="userSpaceOnUse">
<stop stop-color="#0A85ED"/>
<stop offset="1" stop-color="#0C63E7"/>
</linearGradient>
<linearGradient id="paint1_linear_1924_95" x1="55" y1="60.2857" x2="55" y2="91.9922" gradientUnits="userSpaceOnUse">
<stop stop-color="#07C8F9"/>
<stop offset="1" stop-color="#09A6F3"/>
</linearGradient>
</defs>
</svg>
