<svg width="96" height="54" viewBox="0 0 96 54" fill="none" xmlns="http://www.w3.org/2000/svg">
<path fill-rule="evenodd" clip-rule="evenodd" d="M9.99675 27.8712L9.88575 27.7648C15.9715 21.3411 28.7542 8 47.8361 8C66.9179 8 79.7006 21.3411 85.7864 27.7648L85.6752 27.8714C79.4915 33.8014 66.7712 46 47.8361 46C28.9008 46 16.1803 33.8012 9.99675 27.8712ZM0.62142 29.6041C-0.18468 28.6572 -0.207085 27.3191 0.557438 26.3383C0.591245 26.2949 0.625751 26.2506 0.660957 26.2055C5.16012 20.4313 21.08 0 47.8361 0C74.5922 0 90.5121 20.4314 95.0112 26.2055L95.1147 26.3383C95.8792 27.3191 95.8568 28.6572 95.0507 29.6041C94.9904 29.675 94.9279 29.7484 94.8634 29.8243C90.1714 35.3424 74.307 54 47.8361 54C21.3652 54 5.50082 35.3425 0.808759 29.8243C0.744197 29.7484 0.68175 29.675 0.62142 29.6041ZM48 16C41.9249 16 37 20.9249 37 27C37 33.0751 41.9249 38 48 38C54.0751 38 59 33.0751 59 27C59 20.9249 54.0751 16 48 16Z" fill="black"/>
</svg>
