<svg width="96" height="54" viewBox="0 0 96 54" fill="none" xmlns="http://www.w3.org/2000/svg">
<rect width="96" height="54" fill="#1E1E1E"/>
<path fill-rule="evenodd" clip-rule="evenodd" d="M9.88575 27.7648C16.0273 33.6538 28.7868 46 47.8361 46C66.8854 46 79.6448 33.6538 85.7864 27.7648C79.7006 21.3411 66.9179 8 47.8361 8C28.7542 8 15.9715 21.3411 9.88575 27.7648ZM0.557438 26.3383C-0.207085 27.3191 -0.18468 28.6572 0.62142 29.6041C5.06624 34.8255 21.001 54 47.8361 54C74.6711 54 90.6059 34.8255 95.0507 29.6041C95.8568 28.6572 95.8792 27.3191 95.1147 26.3383C90.7605 20.7523 74.8015 0 47.8361 0C20.8706 0 4.91164 20.7523 0.557438 26.3383Z" fill="black"/>
<path d="M37 27C37 20.9249 41.9249 16 48 16C54.0751 16 59 20.9249 59 27C59 33.0751 54.0751 38 48 38C41.9249 38 37 33.0751 37 27Z" fill="black"/>
</svg>
