<svg id="logo-myits-white" xmlns="http://www.w3.org/2000/svg" width="3030.496" height="1080" viewBox="0 0 3030.496 1080">
  <path id="Path_432" data-name="Path 432" d="M18462.875,4709.922V4855.34h-162.867c14.428-21.544,19.893-20.615,38.994-36.624C18372.385,4790.741,18437.277,4723.467,18462.875,4709.922Zm1372.736,551.486v34.449c-2.891,41-16.076,81.864-39.416,119.188-57.771,92.39-196.072,138.3-315.4,138.3-103.279,0-146.574-16.887-231.756-35.813-30.7-6.822-29.914,1.964-37.039-26.94-3.926-15.919-6.084-36.219-10.336-53.65-6.316-25.906-22.773-73.488-23.338-98.814,94.27,21.963,186.525,52.352,302.469,52.352,69.311,0,174.5-20.048,174.5-87.25,0-117.032-199.105-118.183-304.828-154.692-98.553-34.034-157.234-86.328-161.936-186.456-2.076-44.2,6.68-69.691,7.244-95.1h-244.3v570.035c0,79.909,19.434,64.476,40.717,104.7h-261.752c3.3-39.615,21.129-3.958,31.924-66.961,5.076-29.626,9.063-64,8.93-95.708-.168-39.664.164-53.463,0-93.129l-5.953-418.939h-290.834v610.753c0,39.3,26.35,31.959,34.9,63.983h-267.568c8.523-31.918,27.063-20.373,34.3-52.948,12.811-57.645,6.416-603.508,6.416-703.222,0-63.211-18.01-59.153-40.719-93.067h1587.957c-6.113,22.891-34.547,50.557-54.066,73.9-19.984,23.9-40.582,37.16-59.8,62.351-26.967,35.347-28.777,40.877-89.824,38.522-64.887-2.5-255.828-38.539-255.828,63.71,0,73.865,320.055,86.122,408.211,190.909C19813.135,5163.053,19832.072,5211.624,19835.611,5261.409Z" transform="translate(-16805.115 -4692.473)" fill="#fff" fill-rule="evenodd"/>
  <path id="Path_433" data-name="Path 433" d="M3589.274,8060.372c-5.453-23.405-15.241-43.27-17.449-69.8-55.076,0-116.335-10.826-116.335,17.452v506.05h151.235V8229.055c0-103.93,42.017-127.967,110.516-127.967,46.469,0,63.984,51.365,63.984,98.883v314.1h145.417V8252.321c0-113.916,30.206-151.233,116.334-151.233,57.952,0,63.983,79.736,63.983,139.6v273.384h145.417V8194.156c0-107.3-35.658-209.4-157.05-209.4-55.678,0-108.249-2.522-153.682,44.086l-32.452,31.53c-51.01-37.373-24.287-75.616-180.317-75.616-88.159,0-126.225,65.814-139.6,75.616Z" transform="translate(-3455.49 -7664.837)" fill="#fff" fill-rule="evenodd"/>
  <path id="Path_434" data-name="Path 434" d="M12468.256,8678.869l-63.982-5.816v116.334c235.209,54.8,284.293-133.372,338.247-278.322l130.429-346.539c8.812-23,13.984-36.6,22.1-59.333,8.465-23.706,15.6-36.771,21.091-60.343h-157.05c-3.6,43.221-110.516,306.861-110.516,378.086h-5.818c0-57.661-35.9-145.535-51.609-192.691-10.6-31.814-19.965-59.772-30.564-91.586-9.833-29.51-20.112-67.26-34.16-93.809H12375.19c2.731,32.84,143.386,370.1,164.538,422.949,32.555,81.338,55.2,95.583,6.762,167.152C12530.26,8658.929,12505.684,8678.869,12468.256,8678.869Z" transform="translate(-11508.503 -7719.114)" fill="#fff" fill-rule="evenodd"/>
</svg>
