<svg width="36" height="36" viewBox="0 0 36 36" fill="none" xmlns="http://www.w3.org/2000/svg">
<path fill-rule="evenodd" clip-rule="evenodd" d="M9.75 6C7.67893 6 6 7.67893 6 9.75V10.0312H30V9.75C30 7.67893 28.3211 6 26.25 6H9.75ZM30 12.0938H6V26.25C6 28.3211 7.67893 30 9.75 30H26.25C28.3211 30 30 28.3211 30 26.25V12.0938ZM18 15.6562C16.9645 15.6562 16.125 16.4957 16.125 17.5312C16.125 18.5668 16.9645 19.4062 18 19.4062C19.0355 19.4062 19.875 18.5668 19.875 17.5312C19.875 16.4957 19.0355 15.6562 18 15.6562ZM10.0312 17.5312C10.0312 16.4957 10.8707 15.6562 11.9062 15.6562C12.9418 15.6562 13.7812 16.4957 13.7812 17.5312C13.7812 18.5668 12.9418 19.4062 11.9062 19.4062C10.8707 19.4062 10.0312 18.5668 10.0312 17.5312ZM18 21.75C16.9645 21.75 16.125 22.5895 16.125 23.625C16.125 24.6605 16.9645 25.5 18 25.5C19.0355 25.5 19.875 24.6605 19.875 23.625C19.875 22.5895 19.0355 21.75 18 21.75ZM10.0312 23.625C10.0312 22.5895 10.8707 21.75 11.9062 21.75C12.9418 21.75 13.7812 22.5895 13.7812 23.625C13.7812 24.6605 12.9418 25.5 11.9062 25.5C10.8707 25.5 10.0312 24.6605 10.0312 23.625ZM24.0938 15.6562C23.0582 15.6562 22.2188 16.4957 22.2188 17.5312C22.2188 18.5668 23.0582 19.4062 24.0938 19.4062C25.1293 19.4062 25.9688 18.5668 25.9688 17.5312C25.9688 16.4957 25.1293 15.6562 24.0938 15.6562ZM22.2188 23.625C22.2188 22.5895 23.0582 21.75 24.0938 21.75C25.1293 21.75 25.9688 22.5895 25.9688 23.625C25.9688 24.6605 25.1293 25.5 24.0938 25.5C23.0582 25.5 22.2188 24.6605 22.2188 23.625Z" fill="#008FFF"/>
</svg>
