<svg width="36" height="36" viewBox="0 0 36 36" fill="none" xmlns="http://www.w3.org/2000/svg">
<path fill-rule="evenodd" clip-rule="evenodd" d="M6 10.2188C6 7.8888 7.8888 6 10.2188 6H20.5312C22.8612 6 24.75 7.8888 24.75 10.2188V14.8006L14.8006 24.75H10.2188C7.8888 24.75 6 22.8612 6 20.5313V10.2188ZM11.625 11.25C11.0555 11.25 10.5938 11.7117 10.5938 12.2813C10.5938 12.8508 11.0555 13.3125 11.625 13.3125H19.125C19.6945 13.3125 20.1562 12.8508 20.1562 12.2813C20.1562 11.7117 19.6945 11.25 19.125 11.25H11.625ZM10.5938 16.9688C10.5938 16.3992 11.0555 15.9375 11.625 15.9375H14.9062C15.4758 15.9375 15.9375 16.3992 15.9375 16.9688C15.9375 17.5383 15.4758 18 14.9062 18H11.625C11.0555 18 10.5938 17.5383 10.5938 16.9688ZM17.4755 24.7268L24.7012 17.501C25.6166 16.5857 27.1005 16.5857 28.0158 17.501L29.2091 18.6943C30.1244 19.6095 30.1244 21.0936 29.2091 22.0088L21.9833 29.2346L16.8789 29.8312L17.4755 24.7268Z" fill="#008FFF"/>
</svg>
