<svg width="36" height="36" viewBox="0 0 36 36" fill="none" xmlns="http://www.w3.org/2000/svg">
<path fill-rule="evenodd" clip-rule="evenodd" d="M6 10.2372C6 7.89705 7.89705 6 10.2372 6H20.5948C22.9349 6 24.8319 7.89705 24.8319 10.2372V14.8391L14.8391 24.8319H10.2372C7.89705 24.8319 6 22.9349 6 20.5948V10.2372ZM11.6496 10.8963C10.8695 10.8963 10.2372 11.5287 10.2372 12.3087C10.2372 13.0887 10.8695 13.7211 11.6496 13.7211H19.1824C19.9624 13.7211 20.5948 13.0887 20.5948 12.3087C20.5948 11.5287 19.9624 10.8963 19.1824 10.8963H11.6496ZM10.2372 17.8641C10.2372 17.0841 10.8695 16.4517 11.6496 16.4517H14.9452C15.7252 16.4517 16.3576 17.0841 16.3576 17.8641C16.3576 18.6442 15.7252 19.2765 14.9452 19.2765H11.6496C10.8695 19.2765 10.2372 18.6442 10.2372 17.8641ZM17.5257 24.8086L24.783 17.5513C25.7023 16.632 27.1928 16.632 28.1121 17.5513L29.3105 18.7498C30.2298 19.669 30.2298 21.1595 29.3105 22.0788L22.0532 29.3361L16.9265 29.9354L17.5257 24.8086Z" fill="#008FFF"/>
</svg>
