<svg width="36" height="36" viewBox="0 0 36 36" fill="none" xmlns="http://www.w3.org/2000/svg">
<path fill-rule="evenodd" clip-rule="evenodd" d="M13.7684 13.5C15.8394 13.5 17.5184 11.8211 17.5184 9.75C17.5184 7.67893 15.8394 6 13.7684 6C11.6973 6 10.0184 7.67893 10.0184 9.75C10.0184 11.8211 11.6973 13.5 13.7684 13.5ZM11.1598 25.0781H14.4061C14.2648 24.4521 14.1902 23.8009 14.1902 23.1328C14.1902 19.78 16.0678 16.8537 18.8337 15.3884C18.0965 14.9886 17.2567 14.7656 16.3769 14.7656H11.1598C8.90126 14.7656 6.90557 16.2355 6.23563 18.3924C5.20488 21.7109 7.68492 25.0781 11.1598 25.0781ZM22.8621 30C26.6159 30 29.659 26.9255 29.659 23.1328C29.659 19.3402 26.6159 16.2656 22.8621 16.2656C19.1083 16.2656 16.0652 19.3402 16.0652 23.1328C16.0652 26.9255 19.1083 30 22.8621 30ZM23.5652 18.9375C23.5652 18.5492 23.2504 18.2344 22.8621 18.2344C22.4738 18.2344 22.159 18.5492 22.159 18.9375V23.1562C22.159 23.5446 22.4738 23.8594 22.8621 23.8594H26.6121C27.0004 23.8594 27.3152 23.5446 27.3152 23.1562C27.3152 22.7679 27.0004 22.4531 26.6121 22.4531H23.5652V18.9375Z" fill="#008FFF"/>
</svg>
