<svg width="36" height="36" viewBox="0 0 36 36" fill="none" xmlns="http://www.w3.org/2000/svg">
<path fill-rule="evenodd" clip-rule="evenodd" d="M13.7683 13.5C15.8394 13.5 17.5183 11.8211 17.5183 9.75C17.5183 7.67893 15.8394 6 13.7683 6C11.6973 6 10.0183 7.67893 10.0183 9.75C10.0183 11.8211 11.6973 13.5 13.7683 13.5ZM24.58 30C28.0549 30 30.535 26.6328 29.5042 23.3143C28.8343 21.1574 26.8386 19.6875 24.58 19.6875H19.3629C18.9394 19.6875 18.5252 19.7392 18.1272 19.8374C17.9785 19.8741 17.832 19.9173 17.6882 19.9667C17.6858 19.9675 17.6834 19.9683 17.681 19.9691C16.5524 20.3588 15.5866 21.132 14.9606 22.1584C14.7432 22.515 14.5667 22.9021 14.4387 23.3143C14.2546 23.9072 14.1825 24.5016 14.2081 25.0781H14.2081C14.3259 27.7285 16.5088 30 19.3629 30H24.58ZM25.7215 14.6719C25.7215 16.7429 24.0425 18.4219 21.9715 18.4219C19.9004 18.4219 18.2215 16.7429 18.2215 14.6719C18.2215 12.6008 19.9004 10.9219 21.9715 10.9219C24.0425 10.9219 25.7215 12.6008 25.7215 14.6719ZM11.1598 25.0781H12.3304C12.306 24.3187 12.406 23.5374 12.6481 22.7581C13.3701 20.4335 15.2213 18.6942 17.4863 18.067C16.7885 17.1466 16.3675 16.0048 16.3473 14.7656H11.1598C8.90126 14.7656 6.90557 16.2355 6.23563 18.3924C5.20488 21.7109 7.68492 25.0781 11.1598 25.0781Z" fill="#008FFF"/>
</svg>
