<svg width="36" height="36" viewBox="0 0 36 36" fill="none" xmlns="http://www.w3.org/2000/svg">
<path fill-rule="evenodd" clip-rule="evenodd" d="M17.5183 9.75C17.5183 11.8211 15.8394 13.5 13.7683 13.5C11.6973 13.5 10.0183 11.8211 10.0183 9.75C10.0183 7.67893 11.6973 6 13.7683 6C15.8394 6 17.5183 7.67893 17.5183 9.75ZM20.6702 17.0655C17.9576 18.2671 16.0652 20.9829 16.0652 24.1406C16.0652 24.458 16.0844 24.7708 16.1215 25.0781H11.1598C7.68492 25.0781 5.20488 21.7109 6.23563 18.3924C6.90557 16.2355 8.90126 14.7656 11.1598 14.7656H16.3769C18.1339 14.7656 19.7317 15.6551 20.6702 17.0655ZM23.7996 30C27.0356 30 29.659 27.3767 29.659 24.1406C29.659 20.9046 27.0356 18.2812 23.7996 18.2812C20.5635 18.2812 17.9402 20.9046 17.9402 24.1406C17.9402 27.3767 20.5635 30 23.7996 30ZM24.5027 20.3906C24.5027 20.0023 24.1879 19.6875 23.7996 19.6875C23.4113 19.6875 23.0965 20.0023 23.0965 20.3906V24.1406C23.0965 24.5047 23.3731 24.8041 23.7277 24.8401C23.7513 24.8425 23.7753 24.8438 23.7996 24.8438H26.6121C27.0004 24.8438 27.3152 24.529 27.3152 24.1406C27.3152 23.7523 27.0004 23.4375 26.6121 23.4375H24.5027V20.3906Z" fill="#008FFF"/>
</svg>
